<svg width="138" height="34" viewBox="0 0 138 34" fill="none" xmlns="http://www.w3.org/2000/svg">
<path d="M9.67048 0H1.82482C1.08698 0 0.421678 0.506357 0.13909 1.28291C-0.143498 2.05946 0.0125092 2.95344 0.53435 3.54788L7.39951 11.368C8.11225 12.1798 9.26724 12.1798 9.97999 11.368C10.6925 10.5563 10.6925 9.24043 9.97999 8.42881L6.22969 4.15686H9.67048C11.9088 4.15686 13.7303 6.23139 13.7303 8.78137C13.7303 11.3313 11.9091 13.4059 9.67048 13.4059H1.82482C0.817166 13.4059 0.000190408 14.3365 0.000190408 15.4843V24.4215C0.000190408 25.5694 0.817166 26.5 1.82482 26.5C2.83247 26.5 3.64944 25.5694 3.64944 24.4215V17.5627H9.67048C13.9214 17.5627 17.3795 13.6233 17.3795 8.78137C17.3795 3.93941 13.9214 0 9.67048 0H9.67048Z" fill="white"/>
<path d="M28.5931 7.01432C26.7607 7.01432 25.0624 7.6763 23.6691 8.79839C23.5432 7.79035 22.7846 7.01432 21.8648 7.01432C20.8571 7.01432 20.0401 7.94494 20.0401 9.09275V24.4212C20.0401 25.569 20.8571 26.4996 21.8648 26.4996C22.8724 26.4996 23.6894 25.569 23.6894 24.4212V16.757C23.6894 13.677 25.8892 11.1712 28.5931 11.1712C29.6007 11.1712 30.4177 10.2406 30.4177 9.09275C30.4177 7.94494 29.6007 7.01432 28.5931 7.01432Z" fill="white"/>
<path d="M34.8926 7.01427C33.885 7.01427 33.068 7.94488 33.068 9.09269V24.4211C33.068 25.5689 33.885 26.4995 34.8926 26.4995C35.9003 26.4995 36.7172 25.5689 36.7172 24.4211V9.09269C36.7172 7.94488 35.9003 7.01427 34.8926 7.01427ZM33.2071 2.873C33.2527 2.9977 33.3098 3.11981 33.3759 3.23153C33.442 3.34584 33.5173 3.45236 33.6017 3.54849C33.6861 3.64462 33.7796 3.73036 33.88 3.8057C33.978 3.88104 34.0852 3.94599 34.1947 3.99795C34.3042 4.04991 34.4205 4.08888 34.5368 4.11486C34.6531 4.14344 34.774 4.15643 34.8926 4.15643C35.0112 4.15643 35.1321 4.14344 35.2484 4.11486C35.3647 4.08888 35.4811 4.04991 35.5905 3.99795C35.7 3.94599 35.8072 3.88104 35.9053 3.8057C36.0056 3.73036 36.0992 3.64462 36.1836 3.54849C36.2657 3.45236 36.3432 3.34584 36.4093 3.23153C36.4755 3.11981 36.5325 2.9977 36.5781 2.873C36.6237 2.74829 36.658 2.61579 36.6808 2.48329C36.7058 2.35079 36.7172 2.21309 36.7172 2.078C36.7172 1.9429 36.7058 1.80521 36.6808 1.67271C36.658 1.54021 36.6237 1.4077 36.5781 1.283C36.5325 1.15829 36.4755 1.03619 36.4093 0.924471C36.3432 0.810156 36.2657 0.703635 36.1836 0.607506C35.7593 0.126869 35.1298 -0.09656 34.5368 0.0411358C34.4205 0.0671142 34.3042 0.106085 34.1947 0.158045C34.0852 0.210006 33.978 0.274958 33.88 0.3503C33.7796 0.425642 33.6861 0.511377 33.6017 0.607506C33.5173 0.703635 33.442 0.810156 33.3759 0.924471C33.3098 1.03619 33.2527 1.15829 33.2071 1.283C33.1615 1.4077 33.1273 1.54021 33.1045 1.67271C33.0794 1.80521 33.068 1.9429 33.068 2.07799C33.068 2.21309 33.0794 2.35079 33.1045 2.48329C33.1273 2.61579 33.1615 2.74829 33.2071 2.873H33.2071Z" fill="white"/>
<path d="M55.6582 7.01432C53.7679 7.01432 52.0612 7.92156 50.8523 9.37204C49.6433 7.92155 47.9366 7.01432 46.0465 7.01432C44.8623 7.01432 43.7504 7.37155 42.787 7.99378C42.4648 7.40636 41.8934 7.01432 41.2404 7.01432C40.2328 7.01432 39.4158 7.94494 39.4158 9.09275V24.4212C39.4158 25.569 40.2328 26.4996 41.2404 26.4996C42.2481 26.4996 43.0651 25.569 43.0651 24.4212V14.5671C43.0651 12.6944 44.4025 11.1712 46.0465 11.1712C47.6905 11.1712 49.0277 12.6947 49.0277 14.5671V24.4212C49.0277 25.569 49.8447 26.4996 50.8523 26.4996C51.86 26.4996 52.677 25.569 52.677 24.4212V14.5671C52.677 12.6944 54.0144 11.1712 55.6582 11.1712C57.3022 11.1712 58.6396 12.6947 58.6396 14.5671V24.4212C58.6396 25.569 59.4566 26.4996 60.4642 26.4996C61.4719 26.4996 62.2889 25.569 62.2889 24.4212V14.5671C62.2889 10.4027 59.3145 7.01432 55.6582 7.01432H55.6582Z" fill="white"/>
<path d="M73.4927 7.01432C68.7765 7.01432 64.9398 11.3847 64.9398 16.757C64.9398 22.1292 68.7765 26.4996 73.4927 26.4996C75.7772 26.4996 77.925 25.4864 79.5407 23.6462C80.2532 22.8345 80.2534 21.5186 79.5407 20.7068C78.8279 19.8954 77.6729 19.8951 76.9602 20.7068C76.034 21.7618 74.8026 22.3427 73.4927 22.3427C71.4332 22.3427 69.6663 20.8891 68.941 18.8354H80.221C81.2287 18.8354 82.0457 17.9048 82.0457 16.757C82.0457 11.3847 78.2089 7.01432 73.4927 7.01432ZM68.941 14.6785C69.6663 12.6248 71.4332 11.1712 73.4927 11.1712C75.5523 11.1712 77.3192 12.6248 78.0445 14.6785H68.941Z" fill="white"/>
<path d="M94.1859 16.757L99.624 10.5625C100.337 9.75083 100.337 8.43493 99.624 7.6233C98.9113 6.81168 97.7563 6.81168 97.0435 7.6233L91.6055 13.8175L86.1674 7.62304C85.4546 6.81141 84.2997 6.81141 83.5869 7.62304C82.8744 8.43467 82.8744 9.75058 83.5869 10.5622L89.025 16.7567L83.5869 22.9512C82.8744 23.7628 82.8744 25.0787 83.5869 25.8903C83.9432 26.2962 84.41 26.4991 84.8771 26.4991C85.3443 26.4991 85.8111 26.2962 86.1674 25.8903L91.6055 19.6959L97.0435 25.8903C97.3998 26.2962 97.8667 26.4991 98.3338 26.4991C98.8009 26.4991 99.2677 26.2962 99.624 25.8903C100.337 25.0787 100.337 23.7628 99.624 22.9512L94.1859 16.757Z" fill="white"/>
<path d="M129.47 7.01432C127.646 7.01432 125.955 7.67189 124.567 8.78696C124.437 7.78438 123.681 7.01432 122.764 7.01432C121.757 7.01432 120.94 7.94494 120.94 9.09275V31.4359C120.94 32.5837 121.757 33.5143 122.764 33.5143C123.772 33.5143 124.589 32.5837 124.589 31.4359V24.6927C125.973 25.7968 127.656 26.4476 129.47 26.4476C134.174 26.4476 138 22.0889 138 16.731C138 11.373 134.174 7.01432 129.47 7.01432ZM129.47 22.2908C126.779 22.2908 124.589 19.7967 124.589 16.731C124.589 13.6653 126.779 11.1712 129.47 11.1712C132.161 11.1712 134.351 13.6653 134.351 16.731C134.351 19.7967 132.161 22.2908 129.47 22.2908Z" fill="white"/>
<path d="M118.271 16.7568C118.271 22.1291 114.435 26.4995 109.718 26.4995C105.002 26.4995 101.165 22.1291 101.165 16.7568C101.165 11.3848 105.002 7.01439 109.718 7.01439C114.435 7.01439 118.271 11.3848 118.271 16.7568ZM115.229 12.2786L110.339 9.06389L110.331 9.07861C110.344 9.02088 110.351 8.96023 110.351 8.89755C110.351 8.49557 110.071 8.1629 109.718 8.1629C109.365 8.1629 109.085 8.48171 109.085 8.88369C109.085 8.95189 109.093 9.0181 109.109 9.08102L109.098 9.06389L104.244 12.2927C104.129 12.1487 103.964 12.0579 103.78 12.0579C103.427 12.0579 103.147 12.3906 103.147 12.7926C103.147 13.1272 103.341 13.4138 103.609 13.5004V19.958C103.341 20.0447 103.147 20.3313 103.147 20.6659C103.147 21.0678 103.427 21.4005 103.78 21.4005C103.966 21.4005 104.131 21.3085 104.246 21.1626L104.242 21.1787L109.102 24.4464C109.091 24.5012 109.085 24.558 109.085 24.6164C109.085 25.0183 109.365 25.351 109.718 25.351C110.071 25.351 110.351 25.0183 110.351 24.6164C110.351 24.5669 110.347 24.5185 110.339 24.4716L115.227 21.2055C115.339 21.3263 115.49 21.4005 115.657 21.4005C116.009 21.4005 116.289 21.0678 116.289 20.6659C116.289 20.3364 116.101 20.0534 115.839 19.9621V13.5241C116.101 13.4328 116.289 13.1498 116.289 12.8203C116.289 12.4183 116.009 12.0857 115.657 12.0857C115.491 12.0857 115.341 12.1591 115.229 12.2786V12.2786ZM109.901 12.8445V9.58864C110 9.55533 110.089 9.49538 110.161 9.41586L110.156 9.42429L115.036 12.654L115.043 12.6406C115.03 12.6982 115.024 12.7585 115.024 12.8203C115.024 12.8913 115.033 12.96 115.049 13.0252L115.036 13.0005L112.577 14.6219L109.901 12.8445ZM109.305 9.44003C109.371 9.5065 109.449 9.55737 109.536 9.58745V12.8441L106.878 14.6036L104.399 12.9427C104.408 12.8942 104.413 12.844 104.413 12.7926C104.413 12.7451 104.409 12.6986 104.401 12.6535L109.305 9.44003ZM109.718 16.5213L112.493 14.6786L112.675 15.0382L112.76 14.9827L109.901 16.8817V20.6104H109.536V16.8817L106.676 14.955V18.7669L109.536 20.6659V23.9126C109.439 23.9462 109.353 24.0056 109.282 24.0838L104.39 20.8598C104.405 20.7979 104.413 20.7328 104.413 20.6659C104.413 20.3415 104.23 20.0622 103.975 19.9665V13.492C104.073 13.4551 104.161 13.3909 104.231 13.3074L104.23 13.3193L106.786 15.0243L106.964 14.6713L109.718 16.5213ZM109.901 23.9126V20.6797L112.76 18.7669V14.9827L115.231 13.3748L115.217 13.3494C115.289 13.4293 115.376 13.49 115.474 13.5241V19.9621C115.212 20.0534 115.024 20.3364 115.024 20.6659C115.024 20.7333 115.032 20.7989 115.046 20.8612L115.036 20.8461L110.162 24.0927C110.09 24.0101 110.001 23.9474 109.901 23.9126L109.901 23.9126Z" fill="white"/>
</svg>
